OFF
34 22 0
1.0000000000 -0.3986372608 0.0677446348
-0.6369855171 0.6670916376 0.5885703003
1.0000000000 0.3986372608 -0.0677446348
-0.6369855171 -0.6670916376 -0.5885703003
-0.4116756889 -0.9060953067 0.4501938848
-0.4116756889 0.9060953067 -0.4501938848
0.5452989767 0.8627071017 -0.1442372197
0.7998266080 -0.1432243904 0.6333538145
-1.0000000000 0.1669579775 -0.1776033190
0.2746695590 -0.9572564460 -0.2682996937
-0.2019073965 -0.9899132570 -0.1829511852
-0.0368230074 0.4519760521 0.9346281760
-0.2019073965 0.9899132570 0.1829511852
0.7998266080 0.1432243904 -0.6333538145
0.2689937040 -0.8202361237 0.5661649481
-1.0000000000 -0.1669579775 0.1776033190
-0.8378621311 -0.5893734808 0.0471221191
0.8000364631 -0.3444635500 -0.5498373881
-0.0440749124 0.1056608012 -1.0335015339
0.4104730386 0.6632583176 0.6829928178
0.2746695590 0.9572564460 0.2682996937
-0.0368230074 -0.4519760521 -0.9346281760
-0.5037236385 0.3303201057 -0.8400965743
0.4056752349 -0.4006396090 0.8672759616
-0.8378621311 0.5893734808 -0.0471221191
-0.8290680359 0.0021712401 -0.6135888995
-0.8290680359 -0.0021712401 0.6135888995
0.8000364631 0.3444635500 0.5498373881
0.4104730386 -0.6632583176 -0.6829928178
0.4056752349 0.4006396090 -0.8672759616
-0.0440749124 -0.1056608012 1.0335015339
0.5452989767 -0.8627071017 0.1442372197
0.2689937040 0.8202361237 -0.5661649481
-0.5037236385 -0.3303201057 0.8400965743
5 9 31 0 17 28
5 7 23 14 31 0
5 8 25 3 16 15
5 8 25 22 5 24
4 13 2 0 17
6 7 23 30 11 19 27
5 4 16 15 26 33
5 1 12 20 19 11
5 9 31 14 4 10
5 6 2 13 29 32
5 11 1 26 33 30
5 3 21 18 22 25
4 7 27 2 0
5 4 33 30 23 14
5 6 32 5 12 20
4 1 24 5 12
5 8 15 26 1 24
6 13 17 28 21 18 29
5 5 32 29 18 22
4 10 4 16 3
5 6 2 27 19 20
5 9 28 21 3 10
