OFF
26 15 0
0.5737225597 0.4054992538 -0.7775608183
0.0108890179 -0.7197498815 -0.7775608183
-0.9598801544 -0.3493056275 0.1245459757
-0.6870312946 0.3294858460 -0.7775608183
0.2546217040 0.3796287001 1.0000000000
-0.9236295361 0.1627181294 0.3855203709
-0.5737225597 -0.4054992538 -0.7775608183
-0.2053373479 -1.0170089969 -0.1950652646
-0.9513813679 0.3605465394 -0.1572808429
1.0072441638 -0.0479045460 0.0913963183
-1.0072441638 0.0479045460 0.0913963183
-0.7498896473 -0.6819407064 -0.2547265637
0.8131525932 -0.5721244712 0.2878733810
-0.8131525932 0.5721244712 0.2878733810
-0.2276199373 0.9666232118 0.4788260224
0.6870312946 -0.3294858460 -0.7775608183
0.2053373479 1.0170089969 -0.1950652646
0.9513813679 -0.3605465394 -0.1572808429
0.7498896473 0.6819407064 -0.2547265637
0.9236295361 -0.1627181294 0.3855203709
-0.0108890179 0.7197498815 -0.7775608183
0.9598801544 0.3493056275 0.1245459757
-0.2546217040 -0.3796287001 1.0000000000
0.2276199373 -0.9666232118 0.4788260224
-0.8236454494 -0.2045186998 0.5915600090
0.8236454494 0.2045186998 0.5915600090
4 9 17 12 19
4 5 13 8 10
4 9 21 25 19
4 2 10 5 24
4 0 20 16 18
4 1 6 11 7
6 3 20 16 14 13 8
6 1 15 17 12 23 7
6 0 20 3 6 1 15
6 2 24 22 23 7 11
6 2 10 8 3 6 11
6 0 18 21 9 17 15
6 4 22 23 12 19 25
6 4 14 13 5 24 22
6 4 14 16 18 21 25
