OFF
# 23-hedron_stabilized
# Generated by 'Stella4D', Version 5.4
# Author: Robert Webb
# Web site: http://www.software3d.com/Stella.php
# Licensed to: Artyom Rudenko
# Date: 12:38:15 AM, 25 July 2026
# 
# Copyright (C) Robert Webb, 2001-2014.
# This copyright notice and the above
# information must be kept intact.
36 23 57
-0.09372591378435204  0.88627120915257407  0.54312559516208236
 0.44378783635583952  0.89305328174757892  0.30024456011728373
 0.01270313686578480 -0.88680705879610555 -0.55014401419279968
 0.50049132402870922 -0.88680705879610588 -0.21845015005123142
-0.91407966436014843 -0.37817674924905820 -0.45077144862217033
-0.52348224710350388  0.88019613547756415  0.16365469671986807
-0.98285927821194763  0.36562891239865469  0.28645670155265962
-0.47594308909049643 -0.88680705879610566 -0.25022587751654651
-0.01235856924529140 -0.46089868805997947 -0.92787224968774429
-0.17776797717841225  0.45964121295647564  0.91140311789132034
 0.82778899854232701  0.46128297139117008 -0.50219731332864370
 0.73509513688474648 -0.45094482313455070  0.63757619171984736
 0.04040770460272228 -0.46348936303016475  0.96303486275525685
 0.19930499646506106  0.46507496512198088 -0.94227066458429098
 0.86043400077784682 -0.47540775429712595 -0.32208986213204521
 0.78592018039992884  0.48629796732461250  0.46469879823247950
-0.44808215894887410 -0.88680705879610666  0.28465653979976657
 0.42036802571527143 -0.88680705879610755  0.30890645480965151
-0.60511115416881733  0.18608590335673772  0.81229443913255406
-0.45393297801909921 -0.19309113195630875 -0.90403005187409002
 0.45554075049958087  0.89260092752029752 -0.23303425505549386
-0.40406854749903898  0.88117022274592205 -0.35847076912474535
-0.73664454108417687 -0.53147688326956755  0.48092310422435774
 0.99608191595302265 -0.23570757962092975  0.10504808271620546
 0.19986652794512941  0.13099699446565441  0.99953774541527474
-0.53258138881262573 -0.28840987564178361  0.82962165074088401
 0.99612711666629439  0.24888573868377495  0.06751963674979812
 0.37045741364888213 -0.12722432384863563 -0.95013577353942236
-0.00953723857039481 -0.88680705879610688  0.51890777968113322
-0.64989535194598236  0.52230504778383358 -0.60102684281865970
-0.38574100242318549  0.28233534759094164 -0.90916768789275682
 0.63017812303637533  0.14430815696164939  0.79897976624144873
 0.76001218107882618 -0.13511235993904386 -0.67856011901978541
-0.96980667008207022 -0.27255100405465299  0.18450449908254757
-0.92713225295577029  0.26000299851372594 -0.34881945878391996
 0.06818465401784025  0.88719489568529109 -0.51382768452007521
5 12 25 22 16 28 	255 0 0
6 2 3 17 28 16 7 	255 255 0
5 4 7 16 22 33 	0 0 255
4 11 12 28 17 	0 255 0
5 6 33 22 25 18 	255 128 255
5 9 18 25 12 24 	128 255 255
4 11 31 24 12 	255 0 128
5 2 7 4 19 8 	255 255 128
5 3 14 23 11 17 	128 64 0
4 4 33 6 34 	0 255 128
5 0 5 6 18 9 	0 128 255
6 2 8 27 32 14 3 	253 208 53
5 11 23 26 15 31 	0 140 140
5 4 34 29 30 19 	255 99 71
6 0 9 24 31 15 1 	204 92 92
5 6 5 21 29 34 	245 163 97
5 10 26 23 14 32 	120 135 153
5 8 19 30 13 27 	61 179 112
4 10 32 27 13 	51 204 51
5 13 30 29 21 35 	102 204 171
5 1 15 26 10 20 	250 128 115
6 0 1 20 35 21 5 	33 140 33
4 10 13 35 20 	255 204 51
