OFF
# 22-hedron
# Generated by 'Stella4D', Version 5.4
# Author: Robert Webb
# Web site: http://www.software3d.com/Stella.php
# Licensed to: Artyom Rudenko
# Date: 12:38:40 AM, 25 July 2026
# 
# Copyright (C) Robert Webb, 2001-2014.
# This copyright notice and the above
# information must be kept intact.
34 22 54
-0.79376166847883145 -0.47828174106029447  0.44997954938827850
 0.79430394923423842  0.39450832049187773  0.52415377861185342
-0.99143721596681744 -0.22817615177093981  0.11186771387796490
 0.99158165680017640  0.20582297283207415  0.14809176517538944
-0.99141637230906465  0.20582485665781400  0.14919092233808456
 0.99156021048827159 -0.22818083711632475  0.11076809101244707
-0.79372260460007316  0.39450813237292964  0.52503252159739766
 0.79425999753112708 -0.47828567416686252  0.44909630954618318
-0.54095317366843176 -0.08115956651729954  0.94398940500256534
 0.00054327489195710  0.31737226287183229  0.97796382850348262
 0.54199771116830520 -0.08115815100669661  0.94339018304334332
 0.00050049155369637 -0.47968746244142513  0.90941597651556894
-0.48713198403383789 -0.87228324829541604  0.28316943799938726
 0.00031014961732409 -0.87228324829541559  0.56588221159063889
 0.48744682199468264 -0.87228324829541592  0.28262726102041585
 0.48752800361031223  0.81117416126631692  0.42740327588022459
 0.00039312243683708  0.76285907445152112  0.70650384993491167
-0.48705162647157108  0.81117647476529320  0.42794151355705795
-0.89214310467712887 -0.36050157718366754 -0.48411922160725479
-0.49096307510009607 -0.87228324829541470 -0.27782303397501701
 0.89164475772895879  0.43794925819668901 -0.41644075652224666
 0.49073993161517326  0.90695582490672966 -0.12535155184589586
-0.00031670738973392 -0.87228324829541470 -0.56729824580858768
 0.49065479491166109 -0.87228324829541526 -0.27836605208843007
 0.89160505204401175 -0.36050452909871245 -0.48510804235185911
-0.00022623939590059  0.95633443050376221 -0.41003607795544955
-0.49087715836320150  0.90695735743586969 -0.12480482418203936
-0.89210540831473240  0.43795154471153708 -0.41545003780489786
-0.00046994516907926  0.59863832806825668 -0.84705996355279967
-0.00052014774402264 -0.44522587298504779 -0.93683004214092913
-0.44537778535079126  0.32306831112199713 -0.87051241668657631
-0.44540348274866121 -0.16965205618757304 -0.91288530857794636
 0.44441552520993044  0.32306605967683327 -0.87100456513676761
 0.44439224894531115 -0.16965426102399817 -0.91337745435849682
5 0 2 18 19 12 	30 80 220
5 0 12 13 11 8 	30 80 220
5 0 8 6 4 2 	30 80 220
5 1 3 20 21 15 	30 80 220
5 1 15 16 9 10 	30 80 220
5 1 10 7 5 3 	30 80 220
4 2 4 27 18 	30 180 30
4 3 5 24 20 	30 180 30
5 4 6 17 26 27 	30 80 220
5 5 7 14 23 24 	30 80 220
5 6 8 9 16 17 	30 80 220
5 7 10 11 13 14 	30 80 220
4 8 11 10 9 	220 30 30
6 12 19 22 23 14 13 	180 180 180
6 15 21 25 26 17 16 	180 180 180
5 18 31 29 22 19 	30 80 220
5 20 32 28 25 21 	30 80 220
5 22 29 33 24 23 	30 80 220
5 25 28 30 27 26 	30 80 220
6 28 32 33 29 31 30 	180 180 180
4 18 27 30 31 	30 180 30
4 20 24 33 32 	30 180 30
