OFF
36 23 0
-1.0147637464 0.0256946352 0.3802200539
0.9469741538 -0.3655757476 -0.3802200539
0.5296340800 0.8659638656 0.3802200539
-0.7900849613 -0.6373158001 -0.3802200539
0.4851296664 -0.8916585008 0.3802200539
-0.1568891924 1.0028915477 -0.3802200539
-0.2426200246 -0.9713055754 -0.2344991139
0.8953864502 -0.0316736368 0.5069434121
0.5340512445 -0.8359323869 -0.2539594983
-0.4202630511 0.7912642305 0.5069434121
0.4569130606 0.8804681381 -0.2539594983
0.0867930830 -0.5357197028 -0.8826684092
0.6916664805 0.5694888886 -0.5069434121
-0.4751233992 -0.7595905937 0.5069434121
-0.7198652908 0.6957678925 -0.2344991139
0.5073434135 -0.1926948366 -0.8826684092
-0.7831310677 0.6237024354 0.2344991139
-0.8138844026 -0.5670854137 0.2539594983
-0.2856755836 -0.4614304934 0.8826684092
-0.5073434135 0.1926948366 -0.8826684092
-0.0867930830 0.5357197028 -0.8826684092
-0.9909643051 -0.0445357512 -0.2539594983
0.9624853154 0.2755376829 -0.2344991139
-0.4205503304 -0.3430248662 -0.8826684092
-0.1485766196 -0.9900626168 0.2344991139
0.8980525757 -0.4213018615 0.2539594983
0.1473586044 -0.8837451874 -0.5069434121
0.4205503304 0.3430248662 -0.8826684092
-0.2567727376 0.4781175593 0.8826684092
0.2567727376 -0.4781175593 0.8826684092
0.2856755836 0.4614304934 0.8826684092
0.9317076873 0.3663601814 0.2344991139
-0.5424483211 0.0166870659 0.8826684092
0.5424483211 -0.0166870659 0.8826684092
-0.8390250850 0.3142562988 -0.5069434121
-0.0841681731 0.9883872752 0.2539594983
5 9 16 14 5 35
5 19 23 3 21 34
5 5 10 12 27 20
5 0 32 18 13 17
5 7 25 1 22 31
5 6 26 8 4 24
5 10 12 22 31 2
5 12 22 1 15 27
6 18 29 33 30 28 32
4 2 10 5 35
5 7 25 4 29 33
5 2 30 28 9 35
5 6 3 17 13 24
4 8 1 25 4
5 4 24 13 18 29
5 6 26 11 23 3
5 7 31 2 30 33
6 11 23 19 20 27 15
4 0 21 3 17
5 0 16 9 28 32
5 0 21 34 14 16
5 8 26 11 15 1
5 14 34 19 20 5
