OFF
28 19 0
0.9988622230 -0.2635961524 -0.3238159499
-0.9988622230 0.2635961524 -0.3238159499
-0.6096329494 0.6651292048 0.6645966470
0.6096329494 -0.6651292048 0.6645966470
-0.8784919957 -0.6071868137 -0.2762345330
0.8784919957 0.6071868137 -0.2762345330
0.2035123605 -0.9543531554 -0.3690954855
-0.2780153639 -1.0058881180 -0.0206567430
0.2780153639 1.0058881180 -0.0206567430
-0.6557527654 0.7933105826 -0.0878614143
0.6557527654 -0.7933105826 -0.0878614143
0.5434631820 0.4694572240 0.7542649325
-0.5434631820 -0.4694572240 0.7542649325
-0.2035123605 0.9543531554 -0.3690954855
0.9685727705 -0.1427733030 0.3028093005
0.9034096255 0.3205797793 0.3789075140
0.1609172931 0.8717463205 0.5515312233
-0.5562619424 0.1864603313 -0.8578724740
0.2974980052 -0.0053643407 1.0000000000
-0.9685727705 0.1427733030 0.3028093005
-0.4535214128 -0.3778003042 -0.8578724740
0.4535214128 0.3778003042 -0.8578724740
-0.1609172931 -0.8717463205 0.5515312233
-0.1146394358 0.5928104269 -0.8578724740
0.5562619424 -0.1864603313 -0.8578724740
-0.2974980052 0.0053643407 1.0000000000
-0.9034096255 -0.3205797793 0.3789075140
0.1146394358 -0.5928104269 -0.8578724740
4 0 14 15 5
5 6 7 22 3 10
5 3 14 15 11 18
5 8 13 9 2 16
5 3 18 25 12 22
5 2 25 12 26 19
5 7 4 26 12 22
5 11 18 25 2 16
5 8 5 15 11 16
4 3 10 0 14
5 6 10 0 24 27
5 8 13 23 21 5
6 17 23 21 24 27 20
4 1 4 20 17
5 9 13 23 17 1
5 6 7 4 20 27
4 1 4 26 19
4 0 5 21 24
4 2 9 1 19
