OFF
# 19-hedron
# Generated by 'Stella4D', Version 5.4
# Author: Robert Webb
# Web site: http://www.software3d.com/Stella.php
# Licensed to: Artyom Rudenko
# Date: 12:39:43 AM, 25 July 2026
# 
# Copyright (C) Robert Webb, 2001-2014.
# This copyright notice and the above
# information must be kept intact.
28 19 45
-0.83659550620693768  0.66453311146108185 -0.33775274239786923
 0.83659558855154714  0.66453312944172116  0.33775270752719178
 0.53139994561544190 -0.27627074860538064 -0.92632792395354957
-0.53140003428653360 -0.27627065461566375  0.92632788892525852
-0.18225252180575774 -0.02069439202501977 -1.02756755811628860
 0.18225252760906260 -0.02069422272181878  1.02756752988393950
-0.93346097005708517 -0.08790497289409999 -0.43359794178706962
 0.93346116231617793 -0.08790484885846849  0.43359801031473011
-0.59466244526616219 -0.36914180812452313 -0.77371028236930783
 0.59466259001643751 -0.36914171659274420  0.77371036797956338
 0.28831710516686482  0.75419492866854054 -0.65770048366685918
-0.28831723860520664  0.75419502794567417  0.65770032583918514
-0.23016055050016154  0.55147425305679709 -0.85604257900422964
 0.23016049349322945  0.55147438827344364  0.85604248021333607
 0.27079289739065421  0.99990351657600762 -0.12326463287577474
-0.27079300209813245  0.99990352060691778  0.12326443838526584
 0.35876613806752605 -0.85795488804577147  0.48568482656158690
-0.35876613000236884 -0.85795488804577147 -0.48568461877710267
-0.24663285173788588 -0.85795488804577147  0.53630084563834013
 0.24663281593710776 -0.85795488804577102 -0.53630069091250643
-0.58236433309825986 -0.85795488804577080  0.07125827874867380
 0.58236436083388066 -0.85795488804577158 -0.07125810699567253
 1.01503692396032700 -0.32385296318294265 -0.19224161786479929
-1.01503682518523660 -0.32385294607272463  0.19224165152186570
 0.93563209333128661  0.30276226720278565 -0.28823735782597654
-0.93563209608836972  0.30276233323689383  0.28823731372831346
 0.67728662591039379  0.37886102210918088 -0.67835695942867769
-0.67728676326184012  0.37886110338896922  0.67835683070843344
5 0 12 4 8 6 	30 80 220
4 0 6 23 25 	255 0 0
5 0 25 27 11 15 	30 80 220
5 0 15 14 10 12 	30 80 220
5 1 13 5 9 7 	30 80 220
4 1 7 22 24 	255 0 0
5 1 24 26 10 14 	30 80 220
5 1 14 15 11 13 	30 80 220
4 2 22 21 19 	30 180 30
4 2 26 24 22 	30 180 30
5 2 4 12 10 26 	30 80 220
5 2 19 17 8 4 	30 80 220
4 3 23 20 18 	30 180 30
4 3 27 25 23 	30 180 30
5 3 5 13 11 27 	30 80 220
5 3 18 16 9 5 	30 80 220
5 6 8 17 20 23 	30 80 220
5 7 9 16 21 22 	30 80 220
6 16 18 20 17 19 21 	180 180 180
