OFF
28 16 0
-0.5386100094 0.8425551957 0.2893580621
-0.5229983373 0.0000000000 0.9062653085
0.1906875086 0.0000000000 1.0693509571
-0.5386100094 -0.8425551957 -0.2893580621
-1.0000000000 0.0000000000 -0.2606326848
-0.5229983373 -0.0000000000 -0.9062653085
-0.7813539361 0.3992747586 -0.5565751163
-0.5386100094 -0.8425551957 0.2893580621
0.5378654585 -0.6480952645 0.6769029345
0.5378654585 0.6480952645 -0.6769029345
0.0360208498 0.9993510386 0.3065281455
0.0360208498 0.9993510386 -0.3065281455
-0.7813539361 -0.3992747586 -0.5565751163
0.9266226190 0.3759927153 0.2374540035
0.9266226190 -0.3759927153 -0.2374540035
-0.7813539361 -0.3992747586 0.5565751163
-0.5386100094 0.8425551957 -0.2893580621
0.5378654585 0.6480952645 0.6769029345
0.9266226190 0.3759927153 -0.2374540035
0.1906875086 -0.0000000000 -1.0693509571
0.0360208498 -0.9993510386 -0.3065281455
0.5378654585 -0.6480952645 -0.6769029345
1.0000000000 -0.0000000000 0.1545086204
0.9266226190 -0.3759927153 0.2374540035
0.0360208498 -0.9993510386 0.3065281455
-0.7813539361 0.3992747586 0.5565751163
-1.0000000000 0.0000000000 0.2606326848
1.0000000000 -0.0000000000 -0.1545086204
4 3 20 24 7
4 0 10 11 16
4 14 23 22 27
4 1 15 26 25
4 13 22 27 18
4 4 6 5 12
6 0 25 26 4 6 16
6 5 19 9 11 16 6
6 9 18 13 17 10 11
6 9 19 21 14 27 18
6 3 12 4 26 15 7
6 2 17 13 22 23 8
6 0 25 1 2 17 10
6 1 2 8 24 7 15
6 3 20 21 19 5 12
6 8 23 14 21 20 24
