OFF
20 12 0
0.0047136089 -0.9343119715 -0.5224336853
0.9804676534 0.2016347920 0.3793739910
-0.6941271636 -0.0495103437 0.8134090241
-0.2910540987 0.7821875232 -0.6703493298
-0.5839878792 0.8967661044 0.0258213992
-1.0100688883 0.2887304748 0.2056540485
-0.5360920750 0.1033384359 -0.9207738531
-0.0727834301 0.3494809638 1.0091896065
0.4692632044 0.7489199326 -0.6039942163
0.6462313594 0.8429380122 0.1331862283
-0.6462313594 -0.8429380122 -0.1331862283
-0.4692632044 -0.7489199326 0.6039942163
0.0727834301 -0.3494809638 -1.0091896065
0.5360920750 -0.1033384359 0.9207738531
1.0100688883 -0.2887304748 -0.2056540485
0.5839878792 -0.8967661044 -0.0258213992
-0.0047136089 0.9343119715 0.5224336853
-0.9804676534 -0.2016347920 -0.3793739910
0.6941271636 0.0495103437 -0.8134090241
0.2910540987 -0.7821875232 0.6703493298
5 19 15 0 10 11
5 19 13 1 14 15
5 18 12 0 15 14
5 17 10 0 12 6
5 17 5 2 11 10
5 19 11 2 7 13
5 18 14 1 9 8
5 16 9 1 13 7
5 18 8 3 6 12
5 17 6 3 4 5
5 16 7 2 5 4
5 16 4 3 8 9
