OFF
12 8 18
 1.00000000000003750  0.52137970680455659 -0.20678349452764805
 0.30169587363215949  0.99999999999989675  0.30169587363214967
-0.20678349452764044  0.52137970680456736  1.00000000000003290
 0.20678349452764461  0.52137970680455625 -1.00000000000003820
-0.30169587363215089  0.99999999999989675 -0.30169587363215888
-1.00000000000003290  0.52137970680456747  0.20678349452764339
-1.00000000000003660 -0.52137970680456935 -0.20678349452764419
-0.30169587363215544 -0.99999999999990297  0.30169587363215672
 0.20678349452764722 -0.52137970680456935  1.00000000000003530
-0.20678349452765202 -0.52137970680457635 -1.00000000000003060
 0.30169587363214651 -0.99999999999990830 -0.30169587363214750
 1.00000000000003200 -0.52137970680457679  0.20678349452764894
5 0 1 2 8 11 	255 0 0
4 1 0 3 4 	255 255 0
4 4 5 2 1 	255 255 0
5 5 4 3 9 6 	255 0 0
5 6 7 8 2 5 	255 0 0
5 11 10 9 3 0 	255 0 0
4 7 6 9 10 	255 255 0
4 10 11 8 7 	255 255 0
