OFF
28 16 42
-0.66055960981956807  0.79787844860616242 -0.27009075673772809
-0.97243355203588200  0.35682208977308794  0.27009075673772809
 0.09637434824754859  0.79787844860616208  0.70710678118654657
-0.72012223268017617 -0.35682208977308805 -0.70710678118654657
 0.56418526157201931  0.79787844860616208 -0.43701602444881849
 0.25231131935570544  0.35682208977308782 -0.97719753792427444
-0.25231131935570544 -0.35682208977308794  0.97719753792427477
-0.56418526157201954 -0.79787844860616219  0.43701602444881865
 0.72012223268017650  0.35682208977308782  0.70710678118654657
-0.09637434824754831 -0.79787844860616230 -0.70710678118654657
 0.97243355203588200 -0.35682208977308794 -0.27009075673772809
 0.66055960981956807 -0.79787844860616242  0.27009075673772809
-0.50462263871141455  0.35682208977309054 -0.87403204889764352
-0.50462263871141455  0.35682208977309054  0.87403204889764352
 1.00924527742282910  0.35682208977309054  0.00000000000000000
 0.00000000000000000 -1.07046626931927170  0.00000000000000000
-0.18257418583505830  0.99512484865801887 -0.07465124915287430
-0.99907076676278184 -0.15957568972122943  0.07465124915287430
 0.02663721472689851  0.99512484865801865  0.19543950758485873
-0.92933363324212925 -0.35682208977308899 -0.19543950758485862
 0.15593697110815979  0.99512484865801853 -0.12078825843198432
-0.88623371444837551 -0.47872706916370045  0.12078825843198443
 0.43488550519076002 -0.15957568972122937 -0.90254628877140375
 0.29541123814945558 -0.35682208977308910  0.90254628877140397
 0.33851115694320943 -0.47872706916370050 -0.82789503961852962
 0.56418526157202153 -0.15957568972122943  0.82789503961852973
 0.63392239509267378 -0.35682208977308899 -0.70710678118654546
 0.54772255750516630 -0.47872706916370039  0.70710678118654546
3 27 25 23 	255 0 0
3 24 22 26 	255 0 0
3 21 17 19 	255 0 0
3 18 20 16 	255 0 0
6 15 11 27 23 6 7 	255 255 0
6 15 9 24 26 10 11 	255 255 0
6 14 8 25 27 11 10 	255 255 0
6 13 6 23 25 8 2 	255 255 0
6 13 1 17 21 7 6 	255 255 0
6 15 7 21 19 3 9 	255 255 0
6 14 10 26 22 5 4 	255 255 0
6 12 5 22 24 9 3 	255 255 0
6 14 4 20 18 2 8 	255 255 0
6 13 2 18 16 0 1 	255 255 0
6 12 3 19 17 1 0 	255 255 0
6 12 0 16 20 4 5 	255 255 0
