OFF
12 8 0
1.0000000000 0.0000160666 0.4266623959
1.0000000000 -0.0000160666 -0.4266623959
-1.0000000000 -0.4266623959 0.0000160666
-1.0000000000 0.4266623959 -0.0000160666
0.5213797068 -0.8533459128 -0.5608566365
-0.5213797068 -0.5609209027 -0.8533036708
0.5213797068 0.8533459128 0.5608566365
-0.5213797068 0.5609209027 0.8533036708
0.5213797068 -0.8533036708 0.5609209027
-0.5213797068 0.5608566365 -0.8533459128
0.5213797068 0.8533036708 -0.5609209027
-0.5213797068 -0.5608566365 0.8533459128
4 6 10 1 0
4 4 8 0 1
4 5 9 3 2
4 7 11 2 3
5 6 0 8 11 7
5 4 1 10 9 5
5 5 2 11 8 4
5 7 3 9 10 6
