OFF
16 10 0
0.9282595328 -0.1918343414 0.4897632746
0.9282595328 0.1918343414 -0.4897632746
-0.9282595328 0.2106675690 0.4819622963
-0.9282595328 -0.2106675690 -0.4819622963
0.9282595328 0.4897632746 0.1918343414
-0.9282595328 -0.4819622963 0.2106675690
0.9282595328 -0.4897632746 -0.1918343414
-0.9282595328 0.4819622963 -0.2106675690
0.2665854682 1.0078386941 0.3947582069
-0.2665854682 -0.9917857800 0.4335133699
0.2665854682 -1.0078386941 -0.3947582069
-0.2665854682 0.9917857800 -0.4335133699
0.2665854682 -0.3947582069 1.0078386941
-0.2665854682 0.4335133699 0.9917857800
0.2665854682 0.3947582069 -1.0078386941
-0.2665854682 -0.4335133699 -0.9917857800
4 4 0 6 1
4 5 2 7 3
5 6 0 12 9 10
5 4 1 14 11 8
5 5 3 15 10 9
5 7 2 13 8 11
5 4 8 13 12 0
5 6 10 15 14 1
5 5 9 12 13 2
5 7 11 14 15 3
