OFF
20 12 30
 0.20678349452745765 -0.52137970680512313 -0.99999999999993627
-0.20678349452745651  0.52137970680512002 -0.99999999999993061
-0.20678349452739037 -0.52137970680528078  0.99999999999986733
 0.20678349452738815  0.52137970680501644  0.99999999999999856
 0.99999999999993527 -0.52137970680512280 -0.20678349452746175
-0.99999999999999956  0.52137970680501655 -0.20678349452738432
-0.99999999999986766 -0.52137970680528045  0.20678349452739342
 0.99999999999993172  0.52137970680512002  0.20678349452745265
-0.18384489913899180 -0.88906950508197080 -0.46354279789045577
 0.18384489913917620  0.88906950508215721 -0.46354279789016345
 0.18384489913909266 -0.88906950508199378  0.46354279789035840
-0.18384489913928825  0.88906950508206861  0.46354279789028552
-0.46354279789033975 -0.88906950508200733 -0.18384489913910654
 0.46354279789016345  0.88906950508215721 -0.18384489913917759
 0.46354279789047531 -0.88906950508195726  0.18384489913897500
-0.46354279789028530  0.88906950508206861  0.18384489913928981
-0.11965507330124990 -0.99999999999949984 -0.11965507330138028
 0.11965507330087492  0.99999999999952560 -0.11965507330087513
 0.11965507330135745 -0.99999999999949996  0.11965507330122632
-0.11965507330099935  0.99999999999949418  0.11965507330099978
3 10 18 14 	255 128 0
3 8 16 12 	255 128 0
3 9 17 13 	255 128 0
3 11 19 15 	255 128 0
6 2 6 12 16 18 10 	128 0 255
6 0 4 14 18 16 8 	128 0 255
6 1 5 15 19 17 9 	128 0 255
6 3 7 13 17 19 11 	128 0 255
6 2 10 14 4 7 3 	0 255 255
6 0 8 12 6 5 1 	0 255 255
6 1 9 13 7 4 0 	0 255 255
6 3 11 15 5 6 2 	0 255 255
