OFF
12 8 18
 0.81649658092772515 -0.57735026918962729  0.47140452079103023
 0.00000000000000000 -0.57735026918962729  0.94280904158206202
-0.81649658092772426 -0.57735026918962729  0.47140452079103196
-0.81649658092772526 -0.57735026918962729 -0.47140452079103023
 0.00000000000000000 -0.57735026918962740 -0.94280904158206202
 0.81649658092772381 -0.57735026918962740 -0.47140452079103246
 0.27216552697591168  0.96225044864937403  0.47140452079103207
 0.54433105395181858  0.19245008972987326  0.94280904158206225
-0.54433105395181780  0.96225044864937426  0.00000000000000000
-1.08866210790363360  0.19245008972987446  0.00000000000000000
 0.27216552697590796  0.96225044864937415 -0.47140452079103168
 0.54433105395181580  0.19245008972987443 -0.94280904158206280
3 0 7 1 	255 255 0
3 2 9 3 	255 255 0
3 4 11 5 	255 255 0
3 6 10 8 	255 255 0
6 0 1 2 3 4 5 	255 0 0
6 10 6 7 0 5 11 	255 0 0
6 6 8 9 2 1 7 	255 0 0
6 11 4 3 9 8 10 	255 0 0
