OFF
24 14 36
 0.48595402960779838  0.20128874975966959  0.92825953276164919
-0.48595402960782552  0.20128874975972949 -0.92825953276165252
-0.48595402960791118 -0.20128874975974242  0.92825953276164919
 0.48595402960787110 -0.20128874975968516 -0.92825953276165252
 1.00000000000147970  0.41421356237245749  0.26658546821205781
-1.00000000000146950  0.41421356237248497 -0.26658546821204748
-1.00000000000149080 -0.41421356237247647  0.26658546821197993
 1.00000000000148570 -0.41421356237247792 -0.26658546821199797
-0.41421356237517110  0.99999999999737677  0.26658546822638995
 0.41421356237518825  0.99999999999738143 -0.26658546822635759
 0.41421356237514784 -0.99999999999739220  0.26658546822637480
-0.41421356237516538 -0.99999999999736922 -0.26658546822641860
-0.24643848243209429  0.59495512658668148  0.78795457361992682
 0.24643848243209010  0.59495512658667737 -0.78795457361995080
 0.24643848243201250 -0.59495512658666605  0.78795457361999210
-0.24643848243205721 -0.59495512658668992 -0.78795457361992527
 0.00000000000000000  0.40257749950765587  0.92825953275915640
 0.00000000000000000  0.40257749950782429 -0.92825953275918216
 0.00000000000000000 -0.40257749950777272  0.92825953275914519
 0.00000000000000000 -0.40257749950762001 -0.92825953275913864
-0.28466527984983747  0.28466527986631807  0.92825953276164264
 0.28466527984977164  0.28466527986651197 -0.92825953276164175
 0.28466527984970058 -0.28466527986652945  0.92825953276165574
-0.28466527984980100 -0.28466527986626472 -0.92825953276166329
3 12 20 16 	255 128 0
3 14 22 18 	255 128 0
3 13 21 17 	255 128 0
3 15 23 19 	255 128 0
6 0 16 20 2 18 22 	128 0 255
6 1 17 21 3 19 23 	128 0 255
6 2 20 12 8 5 6 	0 255 255
6 0 22 14 10 7 4 	0 255 255
6 1 23 15 11 6 5 	0 255 255
6 3 21 13 9 4 7 	0 255 255
6 0 4 9 8 12 16 	255 0 255
6 2 6 11 10 14 18 	255 0 255
6 1 5 8 9 13 17 	255 0 255
6 3 7 10 11 15 19 	255 0 255
