OFF
16 10 24
-0.99999999999999845  0.26658546821887608  0.41421356237309370
-0.41421356237309453 -0.26658546821887552  0.99999999999999778
 0.41421356237309376  0.26658546821887624  0.99999999999999778
 0.99999999999999833 -0.26658546821887608  0.41421356237309431
 0.99999999999999822  0.26658546821887591 -0.41421356237309392
 0.41421356237309392 -0.26658546821887591 -0.99999999999999822
-0.41421356237309459  0.26658546821887641 -0.99999999999999789
-0.99999999999999845 -0.26658546821887513 -0.41421356237309404
-0.20128874975480252  0.92825953276193618 -0.48595402961116774
-0.48595402961116763  0.92825953276193618  0.20128874975480193
 0.20128874975480204  0.92825953276193629  0.48595402961116752
 0.48595402961116752  0.92825953276193629 -0.20128874975480204
-0.48595402961116752 -0.92825953276193629 -0.20128874975480204
 0.20128874975480204 -0.92825953276193629 -0.48595402961116752
 0.48595402961116763 -0.92825953276193618  0.20128874975480221
-0.20128874975480227 -0.92825953276193596  0.48595402961116707
5 6 7 0 9 8 	255 0 0
5 0 1 2 10 9 	255 0 0
5 2 3 4 11 10 	255 0 0
5 4 5 6 8 11 	255 0 0
5 1 0 7 12 15 	255 0 0
5 3 2 1 15 14 	255 0 0
5 5 4 3 14 13 	255 0 0
5 7 6 5 13 12 	255 0 0
4 9 10 11 8 	255 255 0
4 12 13 14 15 	255 255 0
