OFF
16 10 24
 0.00000000000000000  1.22474487139158980  0.00000000000000000
-1.15470053837925190 -0.40824829046386324  0.00000000000000000
 0.57735026918962595 -0.40824829046386324 -1.00000000000000040
 0.57735026918962595 -0.40824829046386324  1.00000000000000040
-0.40824829046386252  0.64739460220196454 -0.70710678118654702
-0.74645224791538911  0.16910197872576208 -0.70710678118654657
-0.40824829046386252  0.64739460220196421  0.70710678118654668
-0.74645224791538944  0.16910197872576199  0.70710678118654702
-0.23914631173809908  0.16910197872576194 -1.00000000000000040
-0.23914631173809908  0.16910197872576221  1.00000000000000020
 0.81649658092772526  0.64739460220196443  0.00000000000000000
-0.33820395745152665 -0.98559855965348842  0.00000000000000000
 0.98559855965348864  0.16910197872576210 -0.29289321881345365
 0.98559855965348864  0.16910197872576202  0.29289321881345354
 0.16910197872576360 -0.98559855965348842 -0.29289321881345359
 0.16910197872576332 -0.98559855965348864  0.29289321881345365
3 15 11 14 	255 0 0
3 10 13 12 	255 0 0
3 6 7 9 	255 0 0
3 8 5 4 	255 0 0
6 14 2 12 13 3 15 	0 0 255
6 15 3 9 7 1 11 	0 0 255
6 11 1 5 8 2 14 	0 0 255
6 4 0 10 12 2 8 	0 0 255
6 9 3 13 10 0 6 	0 0 255
6 6 0 4 5 1 7 	0 0 255
